<?xml version="1.0" encoding="utf-8"?>
<!-- Generator: Adobe Illustrator 19.1.0, SVG Export Plug-In . SVG Version: 6.00 Build 0)  -->
<svg version="1.1" id="Layer_1" xmlns="http://www.w3.org/2000/svg" xmlns:xlink="http://www.w3.org/1999/xlink" x="0px" y="0px"
	 viewBox="0 0 55 55" style="enable-background:new 0 0 55 55;" xml:space="preserve">
<style type="text/css">
	.st0{fill:#820606;}
</style>
<rect x="-750.6" y="383.5" style="fill:none;" width="403" height="170"/>
<text transform="matrix(1 0 0 1 -750.5909 439.5)"><tspan x="0" y="0" style="font-family:'Opificio'; font-size:80px;">eighty</tspan><tspan x="214.9" y="0" class="st0" style="font-family:'Opificio'; font-size:80px;">4</tspan></text>
<g>
	<g>
		<g>
			<path d="M42.8,7.1c8,5.8,12,16,10,25.7c-2,9.8-9.7,17.7-19.5,19.9c-9.7,2.2-20.1-1.6-26-9.6c-5.8-7.8-6.8-18.6-2.2-27.2
				C10.1,6.5,20.6,1,31.1,2.4c1.3,0.2,2.5,0.4,3.8,0.8c1,0.3,1.5-1.3,0.4-1.6c-10.9-3.1-22.8,1-29.5,10.1C-0.4,20.1-1.1,31.8,4,41
				c5.2,9.3,15.6,14.8,26.2,13.8c10.6-1,19.8-8.1,23.3-18.2c3.4-9.9,0.7-21.2-6.8-28.5c-1-0.9-2-1.8-3.1-2.5C42.8,5,42,6.5,42.8,7.1
				L42.8,7.1z"/>
		</g>
	</g>
	<path d="M43,12.6c-4.5,6.3-8.9,12.6-13.3,18.9c0-0.2,0-0.3,0-0.5c-0.1-4.3-2.7-8.1-6.7-9.6c-0.5-0.2-1.1-0.3-1.6-0.4
		c1.7-0.8,2.8-2.5,2.9-4.4c0,0,0-0.1,0-0.1c0-0.1,0-0.1,0-0.2c-0.1-2-1.3-3.8-3.2-4.5c-1.9-0.7-4.2-0.1-5.6,1.5
		c-1.3,1.6-1.6,3.9-0.5,5.7c0.6,1,1.4,1.7,2.4,2.1c-2.2,0.5-4.3,1.7-5.8,3.5c-2.7,3.3-3.1,8.1-0.9,11.8C13,40,17.3,42,21.5,41.1
		c3-0.6,5.6-2.6,6.7-4.6c4.1,0,8.3,0,12.3,0c2,0,2-2,0-2c0,0-6.3,0-10.7,0c4.3-6,8.3-12.2,12.6-18.2c0.1-0.1,0.1-0.4,0.1-0.5
		c0,6.6,0,13.2,0,19.8c0,1.1,0,1.9,0,2.9s2,1,2,0c0-7,0-14.8,0-22.3c0-1.1,0-2.1,0-3.2C44.5,12.1,43.5,12,43,12.6z M16,16.4
		c0-1.8,1.5-3.3,3.3-3.3c1.9,0,3.3,1.5,3.3,3.3c0,1.8-1.5,3.3-3.3,3.3C17.5,19.8,16,18.2,16,16.4z M22.4,39.1
		c-3.4,1.2-7.1,0.1-9.4-2.6c-2.3-2.8-2.6-6.9-0.8-10c1.8-3,5.5-4.7,8.9-4c4,0.8,6.9,4.3,7,8.4C28,34.6,25.8,37.9,22.4,39.1z"/>
</g>
</svg>
