<?xml version="1.0" encoding="utf-8"?>
<!-- Generator: Adobe Illustrator 19.1.0, SVG Export Plug-In . SVG Version: 6.00 Build 0)  -->
<svg version="1.1" id="Layer_1" xmlns="http://www.w3.org/2000/svg" xmlns:xlink="http://www.w3.org/1999/xlink" x="0px" y="0px"
	 viewBox="0 0 55 55" style="enable-background:new 0 0 55 55;" xml:space="preserve">
<style type="text/css">
	.st0{fill:#820606;}
	.st1{fill:#FFFFFF;}
</style>
<rect x="-750.6" y="383.5" style="fill:none;" width="403" height="170"/>
<text transform="matrix(1 0 0 1 -750.5909 439.5)"><tspan x="0" y="0" style="font-family:'Opificio'; font-size:80px;">eighty</tspan><tspan x="214.9" y="0" class="st0" style="font-family:'Opificio'; font-size:80px;">4</tspan></text>
<g>
	<g>
		<path class="st1" d="M53.1,23.8C54.6,33.5,50.2,43.6,42,49c-8.3,5.6-19.4,5.7-27.9,0.3C5.7,44,1.1,34,2.5,24.2
			c1.4-9.6,8.4-17.9,17.7-20.8c10.1-3.1,21.4,0.4,27.9,8.8c0.8,1,1.5,2.1,2.1,3.2c0.5,0.9,2,0.1,1.5-0.8c-5.5-9.9-16.8-15.4-28-13.7
			C13.2,2.4,4.5,10.2,1.6,20.3c-2.9,10.2,0.6,21.5,8.7,28.3c8.2,6.8,19.8,8.2,29.3,3.6c9.4-4.5,15.5-14.5,15.3-24.9
			c0-1.3-0.2-2.6-0.4-4C54.5,22.3,52.9,22.7,53.1,23.8L53.1,23.8z"/>
	</g>
</g>
<path class="st1" d="M43,12.6c-4.5,6.3-8.9,12.6-13.3,18.9c0-0.2,0-0.3,0-0.5c-0.1-4.3-2.7-8.1-6.7-9.6c-0.5-0.2-1.1-0.3-1.6-0.4
	c1.7-0.8,2.8-2.5,2.9-4.4c0,0,0-0.1,0-0.1c0-0.1,0-0.1,0-0.2c-0.1-2-1.3-3.8-3.2-4.5c-1.9-0.7-4.2-0.1-5.6,1.5
	c-1.3,1.6-1.6,3.9-0.5,5.7c0.6,1,1.4,1.7,2.4,2.1c-2.2,0.5-4.3,1.7-5.8,3.5c-2.7,3.3-3.1,8.1-0.9,11.8C13,40,17.3,42,21.5,41.1
	c3-0.6,5.6-2.6,6.7-4.6c4.1,0,8.3,0,12.3,0c2,0,2-2,0-2c0,0-6.3,0-10.7,0c4.3-6,8.3-12.2,12.6-18.2c0.1-0.1,0.1-0.4,0.1-0.5
	c0,6.6,0,13.2,0,19.8c0,1.1,0,1.9,0,2.9s2,1,2,0c0-7,0-14.8,0-22.3c0-1.1,0-2.1,0-3.2C44.5,12.1,43.5,12,43,12.6z M16,16.4
	c0-1.8,1.5-3.3,3.3-3.3c1.9,0,3.3,1.5,3.3,3.3c0,1.8-1.5,3.3-3.3,3.3C17.5,19.8,16,18.2,16,16.4z M22.4,39.1
	c-3.4,1.2-7.1,0.1-9.4-2.6c-2.3-2.8-2.6-6.9-0.8-10c1.8-3,5.5-4.7,8.9-4c4,0.8,6.9,4.3,7,8.4C28,34.6,25.8,37.9,22.4,39.1z"/>
</svg>
