<?xml version="1.0" encoding="utf-8"?>
<!-- Generator: Adobe Illustrator 19.1.0, SVG Export Plug-In . SVG Version: 6.00 Build 0)  -->
<svg version="1.1" id="Layer_1" xmlns="http://www.w3.org/2000/svg" xmlns:xlink="http://www.w3.org/1999/xlink" x="0px" y="0px"
	 viewBox="0 0 20 20" style="enable-background:new 0 0 20 20;" xml:space="preserve">
<style type="text/css">
	.st0{fill:#191919;}
	.st1{fill:#999999;}
</style>
<g>
	<path class="st0" d="M16.1,5.5v9.1c0,0.4-0.2,0.8-0.5,1.1c-0.3,0.3-0.7,0.5-1.1,0.5H5.5c-0.4,0-0.8-0.2-1.1-0.5
		c-0.3-0.3-0.5-0.7-0.5-1.1V5.5c0-0.4,0.2-0.8,0.5-1.1C4.7,4.1,5,4,5.5,4h9.1c0.4,0,0.8,0.2,1.1,0.5C16,4.7,16.1,5.1,16.1,5.5z
		 M14.7,14.3V9.1h-1.1c0.1,0.3,0.2,0.7,0.2,1c0,0.7-0.2,1.3-0.5,1.8c-0.3,0.6-0.8,1-1.4,1.3c-0.6,0.3-1.2,0.5-1.9,0.5
		c-1,0-1.9-0.4-2.7-1.1c-0.7-0.7-1.1-1.6-1.1-2.6c0-0.4,0.1-0.7,0.2-1H5.3v5.2c0,0.1,0,0.3,0.1,0.3c0.1,0.1,0.2,0.1,0.3,0.1h8.5
		c0.1,0,0.2,0,0.3-0.1C14.7,14.6,14.7,14.4,14.7,14.3z M11.8,11.7c0.5-0.5,0.7-1,0.7-1.7c0-0.7-0.2-1.2-0.7-1.7
		c-0.5-0.5-1.1-0.7-1.7-0.7c-0.7,0-1.2,0.2-1.7,0.7c-0.5,0.5-0.7,1-0.7,1.7c0,0.7,0.2,1.2,0.7,1.7c0.5,0.5,1.1,0.7,1.7,0.7
		C10.7,12.4,11.3,12.2,11.8,11.7z M14.7,7.2V5.9c0-0.1-0.1-0.3-0.2-0.4c-0.1-0.1-0.2-0.2-0.4-0.2h-1.4c-0.2,0-0.3,0.1-0.4,0.2
		c-0.1,0.1-0.2,0.2-0.2,0.4v1.3c0,0.2,0.1,0.3,0.2,0.4c0.1,0.1,0.2,0.2,0.4,0.2h1.4c0.2,0,0.3-0.1,0.4-0.2
		C14.7,7.5,14.7,7.4,14.7,7.2z"/>
</g>
<g>
	<path class="st1" d="M41.5,4c0,0.7,0,1.4,0,2.1c-0.1,0-0.1,0-0.2,0c-0.4,0-0.8,0-1.2,0c-0.4,0-0.6,0.1-0.6,0.6c0,0.4,0,0.8,0,1.3
		c0.6,0,1.3,0,1.9,0c0,0.2,0,0.5-0.1,0.7c0,0.4-0.1,0.9-0.1,1.3c0,0.1,0,0.1-0.1,0.1c-0.5,0-0.9,0-1.4,0c-0.1,0-0.1,0-0.2,0
		c0,2.1,0,4.1,0,6.2c-0.8,0-1.6,0-2.5,0c0-2,0-4.1,0-6.1c-0.4,0-0.8,0-1.3,0c0-0.7,0-1.4,0-2.1c0.4,0,0.8,0,1.3,0c0-0.1,0-0.1,0-0.2
		c0-0.6,0-1.2,0-1.8c0-0.7,0.3-1.3,1-1.6C38.5,4.1,39,4,39.5,4C40.1,4,40.8,4,41.5,4C41.4,4,41.4,4,41.5,4z"/>
</g>
<g>
	<path class="st1" d="M59.1,6.4v7.4c0,0.3-0.1,0.6-0.3,0.8c-0.2,0.2-0.5,0.3-0.8,0.3H48c-0.3,0-0.6-0.1-0.8-0.3
		c-0.2-0.2-0.3-0.5-0.3-0.8V6.4c0-0.3,0.1-0.6,0.3-0.8c0.2-0.2,0.5-0.3,0.8-0.3h10c0.3,0,0.6,0.1,0.8,0.3
		C58.9,5.8,59.1,6.1,59.1,6.4z M58.2,6.6C58.2,6.6,58.2,6.6,58.2,6.6c0-0.1,0-0.1,0-0.2c0,0,0-0.1,0-0.1c0,0,0-0.1,0-0.1
		c0,0,0,0,0-0.1c0,0,0,0-0.1-0.1c0,0-0.1,0-0.1,0H48c-0.1,0-0.1,0-0.2,0.1c0,0-0.1,0.1-0.1,0.2c0,0.8,0.3,1.4,1,1.9
		c0.9,0.7,1.8,1.4,2.7,2.2c0,0,0.1,0.1,0.2,0.2c0.1,0.1,0.2,0.2,0.3,0.3c0.1,0.1,0.2,0.1,0.3,0.2c0.1,0.1,0.2,0.1,0.3,0.2
		c0.1,0,0.2,0.1,0.3,0.1h0h0c0.1,0,0.2,0,0.3-0.1c0.1,0,0.2-0.1,0.3-0.2c0.1-0.1,0.2-0.2,0.3-0.2c0.1-0.1,0.2-0.1,0.3-0.3
		c0.1-0.1,0.2-0.2,0.2-0.2c0.9-0.7,1.9-1.5,2.7-2.2c0.2-0.2,0.5-0.5,0.7-0.8C58.1,7.2,58.2,6.9,58.2,6.6z M58.2,13.8V8.6
		C58,8.7,57.9,8.9,57.7,9c-1.2,0.9-2.2,1.7-2.9,2.3c-0.2,0.2-0.4,0.3-0.6,0.5c-0.1,0.1-0.3,0.2-0.6,0.3c-0.2,0.1-0.5,0.2-0.7,0.2h0
		h0c-0.2,0-0.4-0.1-0.7-0.2c-0.2-0.1-0.4-0.2-0.6-0.3c-0.1-0.1-0.3-0.3-0.6-0.5c-0.7-0.6-1.7-1.4-2.9-2.3c-0.2-0.1-0.3-0.3-0.5-0.4
		v5.2c0,0.1,0,0.1,0.1,0.2c0,0,0.1,0.1,0.2,0.1h10c0.1,0,0.1,0,0.2-0.1C58.2,13.9,58.2,13.8,58.2,13.8z"/>
</g>
</svg>
