<?xml version="1.0" encoding="utf-8"?>
<!-- Generator: Adobe Illustrator 19.1.0, SVG Export Plug-In . SVG Version: 6.00 Build 0)  -->
<svg version="1.1" id="Layer_1" xmlns="http://www.w3.org/2000/svg" xmlns:xlink="http://www.w3.org/1999/xlink" x="0px" y="0px"
	 viewBox="0 0 20 20" style="enable-background:new 0 0 20 20;" xml:space="preserve">
<style type="text/css">
	.st0{fill:#191919;}
</style>
<g>
	<path class="st0" d="M-13.5,5.5v9.1c0,0.4-0.2,0.8-0.5,1.1c-0.3,0.3-0.7,0.5-1.1,0.5h-9.1c-0.4,0-0.8-0.2-1.1-0.5
		c-0.3-0.3-0.5-0.7-0.5-1.1V5.5c0-0.4,0.2-0.8,0.5-1.1c0.3-0.3,0.7-0.5,1.1-0.5h9.1c0.4,0,0.8,0.2,1.1,0.5
		C-13.7,4.7-13.5,5.1-13.5,5.5z M-14.9,14.3V9.1H-16c0.1,0.3,0.2,0.7,0.2,1c0,0.7-0.2,1.3-0.5,1.8c-0.3,0.6-0.8,1-1.4,1.3
		c-0.6,0.3-1.2,0.5-1.9,0.5c-1,0-1.9-0.4-2.7-1.1c-0.7-0.7-1.1-1.6-1.1-2.6c0-0.4,0.1-0.7,0.2-1h-1.1v5.2c0,0.1,0,0.3,0.1,0.3
		c0.1,0.1,0.2,0.1,0.3,0.1h8.5c0.1,0,0.2,0,0.3-0.1C-14.9,14.6-14.9,14.4-14.9,14.3z M-17.9,11.7c0.5-0.5,0.7-1,0.7-1.7
		c0-0.7-0.2-1.2-0.7-1.7c-0.5-0.5-1.1-0.7-1.7-0.7c-0.7,0-1.2,0.2-1.7,0.7c-0.5,0.5-0.7,1-0.7,1.7c0,0.7,0.2,1.2,0.7,1.7
		c0.5,0.5,1.1,0.7,1.7,0.7C-18.9,12.4-18.3,12.2-17.9,11.7z M-14.9,7.2V5.9c0-0.1-0.1-0.3-0.2-0.4c-0.1-0.1-0.2-0.2-0.4-0.2h-1.4
		c-0.2,0-0.3,0.1-0.4,0.2c-0.1,0.1-0.2,0.2-0.2,0.4v1.3c0,0.2,0.1,0.3,0.2,0.4c0.1,0.1,0.2,0.2,0.4,0.2h1.4c0.2,0,0.3-0.1,0.4-0.2
		C-14.9,7.5-14.9,7.4-14.9,7.2z"/>
</g>
<g>
	<path class="st0" d="M41.5,4c0,0.7,0,1.4,0,2.1c-0.1,0-0.1,0-0.2,0c-0.4,0-0.8,0-1.2,0c-0.4,0-0.6,0.1-0.6,0.6c0,0.4,0,0.8,0,1.3
		c0.6,0,1.3,0,1.9,0c0,0.2,0,0.5-0.1,0.7c0,0.4-0.1,0.9-0.1,1.3c0,0.1,0,0.1-0.1,0.1c-0.5,0-0.9,0-1.4,0c-0.1,0-0.1,0-0.2,0
		c0,2.1,0,4.1,0,6.2c-0.8,0-1.6,0-2.5,0c0-2,0-4.1,0-6.1c-0.4,0-0.8,0-1.3,0c0-0.7,0-1.4,0-2.1c0.4,0,0.8,0,1.3,0c0-0.1,0-0.1,0-0.2
		c0-0.6,0-1.2,0-1.8c0-0.7,0.3-1.3,1-1.6C38.5,4.1,39,4,39.5,4C40.1,4,40.8,4,41.5,4C41.4,4,41.4,4,41.5,4z"/>
</g>
<g>
	<path class="st0" d="M16.1,6.4v7.4c0,0.3-0.1,0.6-0.3,0.8c-0.2,0.2-0.5,0.3-0.8,0.3H5c-0.3,0-0.6-0.1-0.8-0.3
		c-0.2-0.2-0.3-0.5-0.3-0.8V6.4c0-0.3,0.1-0.6,0.3-0.8C4.5,5.4,4.7,5.3,5,5.3h10c0.3,0,0.6,0.1,0.8,0.3C16,5.8,16.1,6.1,16.1,6.4z
		 M15.3,6.6C15.3,6.6,15.3,6.6,15.3,6.6c0-0.1,0-0.1,0-0.2c0,0,0-0.1,0-0.1c0,0,0-0.1,0-0.1c0,0,0,0,0-0.1c0,0,0,0-0.1-0.1
		c0,0-0.1,0-0.1,0H5c-0.1,0-0.1,0-0.2,0.1c0,0-0.1,0.1-0.1,0.2c0,0.8,0.3,1.4,1,1.9C6.7,9,7.6,9.7,8.5,10.5c0,0,0.1,0.1,0.2,0.2
		c0.1,0.1,0.2,0.2,0.3,0.3c0.1,0.1,0.2,0.1,0.3,0.2c0.1,0.1,0.2,0.1,0.3,0.2c0.1,0,0.2,0.1,0.3,0.1h0h0c0.1,0,0.2,0,0.3-0.1
		c0.1,0,0.2-0.1,0.3-0.2c0.1-0.1,0.2-0.2,0.3-0.2c0.1-0.1,0.2-0.1,0.3-0.3c0.1-0.1,0.2-0.2,0.2-0.2c0.9-0.7,1.9-1.5,2.7-2.2
		c0.2-0.2,0.5-0.5,0.7-0.8C15.1,7.2,15.3,6.9,15.3,6.6z M15.3,13.8V8.6C15.1,8.7,15,8.9,14.8,9c-1.2,0.9-2.2,1.7-2.9,2.3
		c-0.2,0.2-0.4,0.3-0.6,0.5c-0.1,0.1-0.3,0.2-0.6,0.3c-0.2,0.1-0.5,0.2-0.7,0.2h0h0c-0.2,0-0.4-0.1-0.7-0.2
		c-0.2-0.1-0.4-0.2-0.6-0.3c-0.1-0.1-0.3-0.3-0.6-0.5C7.5,10.7,6.5,9.9,5.3,9C5.1,8.9,5,8.7,4.8,8.6v5.2c0,0.1,0,0.1,0.1,0.2
		C4.9,14,5,14,5,14h10c0.1,0,0.1,0,0.2-0.1C15.2,13.9,15.3,13.8,15.3,13.8z"/>
</g>
</svg>
