<?xml version="1.0" encoding="utf-8"?>
<!-- Generator: Adobe Illustrator 19.1.0, SVG Export Plug-In . SVG Version: 6.00 Build 0)  -->
<svg version="1.1" id="Layer_1" xmlns="http://www.w3.org/2000/svg" xmlns:xlink="http://www.w3.org/1999/xlink" x="0px" y="0px"
	 viewBox="-473.8 586.2 29.7 29.7" style="enable-background:new -473.8 586.2 29.7 29.7;" xml:space="preserve">
<style type="text/css">
	.st0{fill:#191919;}
	.st1{fill:#606060;}
	.st2{fill:#FFFFFF;}
</style>
<g>
	<path class="st0" d="M-482.5,596.5v9.1c0,0.4-0.2,0.8-0.5,1.1c-0.3,0.3-0.7,0.5-1.1,0.5h-9.1c-0.4,0-0.8-0.2-1.1-0.5
		c-0.3-0.3-0.5-0.7-0.5-1.1v-9.1c0-0.4,0.2-0.8,0.5-1.1c0.3-0.3,0.7-0.5,1.1-0.5h9.1c0.4,0,0.8,0.2,1.1,0.5
		C-482.7,595.7-482.5,596.1-482.5,596.5z M-483.9,605.3v-5.2h-1.1c0.1,0.3,0.2,0.7,0.2,1c0,0.7-0.2,1.3-0.5,1.8
		c-0.3,0.6-0.8,1-1.4,1.3s-1.2,0.5-1.9,0.5c-1,0-1.9-0.4-2.7-1.1c-0.7-0.7-1.1-1.6-1.1-2.6c0-0.4,0.1-0.7,0.2-1h-1.1v5.2
		c0,0.1,0,0.3,0.1,0.3c0.1,0.1,0.2,0.1,0.3,0.1h8.5C-484.3,605.6-483.9,605.4-483.9,605.3z M-486.9,602.7c0.5-0.5,0.7-1,0.7-1.7
		c0-0.7-0.2-1.2-0.7-1.7s-1.1-0.7-1.7-0.7c-0.7,0-1.2,0.2-1.7,0.7s-0.7,1-0.7,1.7c0,0.7,0.2,1.2,0.7,1.7s1.1,0.7,1.7,0.7
		C-487.9,603.4-487.3,603.2-486.9,602.7z M-483.9,598.2v-1.3c0-0.1-0.1-0.3-0.2-0.4c-0.1-0.1-0.2-0.2-0.4-0.2h-1.4
		c-0.2,0-0.3,0.1-0.4,0.2c-0.1,0.1-0.2,0.2-0.2,0.4v1.3c0,0.2,0.1,0.3,0.2,0.4c0.1,0.1,0.2,0.2,0.4,0.2h1.4c0.2,0,0.3-0.1,0.4-0.2
		C-483.9,598.5-483.9,598.4-483.9,598.2z"/>
</g>
<g>
	<path class="st0" d="M-486.1,583.3v7.4c0,0.3-0.1,0.6-0.3,0.8c-0.2,0.2-0.5,0.3-0.8,0.3h-10c-0.3,0-0.6-0.1-0.8-0.3
		c-0.2-0.2-0.3-0.5-0.3-0.8v-7.4c0-0.3,0.1-0.6,0.3-0.8c0.2-0.2,0.5-0.3,0.8-0.3h10c0.3,0,0.6,0.1,0.8,0.3
		C-486.2,582.7-486.1,583-486.1,583.3z M-487,583.5L-487,583.5c0-0.1,0-0.1,0-0.2v-0.1v-0.1c0,0,0,0,0-0.1c0,0,0,0-0.1-0.1h-0.1h-10
		c-0.1,0-0.1,0-0.2,0.1c0,0-0.1,0.1-0.1,0.2c0,0.8,0.3,1.4,1,1.9c0.9,0.7,1.8,1.4,2.7,2.2c0,0,0.1,0.1,0.2,0.2
		c0.1,0.1,0.2,0.2,0.3,0.3c0.1,0.1,0.2,0.1,0.3,0.2c0.1,0.1,0.2,0.1,0.3,0.2c0.1,0,0.2,0.1,0.3,0.1l0,0l0,0c0.1,0,0.2,0,0.3-0.1
		c0.1,0,0.2-0.1,0.3-0.2c0.1-0.1,0.2-0.2,0.3-0.2c0.1-0.1,0.2-0.1,0.3-0.3c0.1-0.1,0.2-0.2,0.2-0.2c0.9-0.7,1.9-1.5,2.7-2.2
		C-488.1,584.9-487,583.8-487,583.5z M-487,590.7v-5.2c-0.1,0.2-0.3,0.3-0.5,0.4c-1.2,0.9-2.2,1.7-2.9,2.3c-0.2,0.2-0.4,0.3-0.6,0.5
		c-0.1,0.1-0.3,0.2-0.6,0.3c-0.2,0.1-0.5,0.2-0.7,0.2l0,0l0,0c-0.2,0-0.4-0.1-0.7-0.2c-0.2-0.1-0.4-0.2-0.6-0.3
		c-0.1-0.1-0.3-0.3-0.6-0.5c-0.7-0.6-1.7-1.4-2.9-2.3c-0.2-0.1-0.3-0.3-0.5-0.4v5.2c0,0.1,0,0.1,0.1,0.2c0,0,0.1,0.1,0.2,0.1h10
		c0.1,0,0.1,0,0.2-0.1S-487,590.7-487,590.7z"/>
</g>
<path d="M-496.8,615.3v9.6c0,0.5-0.2,0.8-0.5,1.2c-0.3,0.3-0.7,0.5-1.2,0.5h-9.6c-0.5,0-0.8-0.2-1.2-0.5s-0.5-0.7-0.5-1.2v-9.6
	c0-0.5,0.2-0.8,0.5-1.2s0.7-0.5,1.2-0.5h9.6c0.5,0,0.8,0.2,1.2,0.5C-496.9,614.5-496.8,614.9-496.8,615.3z M-498.2,624.5v-5.4h-1.1
	c0.1,0.4,0.2,0.7,0.2,1.1c0,0.7-0.2,1.4-0.5,1.9s-0.8,1.1-1.5,1.4c-0.6,0.3-1.3,0.5-2,0.5c-1.1,0-2-0.4-2.8-1.1
	c-0.8-0.8-1.2-1.7-1.2-2.7c0-0.4,0.1-0.7,0.2-1.1h-1.2v5.4c0,0.1,0,0.3,0.1,0.4s0.2,0.1,0.4,0.1h8.9c0.1,0,0.3,0,0.4-0.1
	S-498.2,624.7-498.2,624.5z M-501.4,621.8c0.5-0.5,0.8-1.1,0.8-1.8s-0.3-1.3-0.8-1.8c-0.5-0.5-1.1-0.7-1.8-0.7
	c-0.7,0-1.3,0.2-1.8,0.7c-0.5,0.5-0.8,1.1-0.8,1.8s0.3,1.3,0.8,1.8s1.1,0.7,1.8,0.7C-502.5,622.6-501.9,622.3-501.4,621.8z
	 M-498.2,617v-1.4c0-0.2-0.1-0.3-0.2-0.4c-0.1-0.1-0.2-0.2-0.4-0.2h-1.5c-0.2,0-0.3,0.1-0.4,0.2c-0.1,0.1-0.2,0.2-0.2,0.4v1.4
	c0,0.2,0.1,0.3,0.2,0.4c0.1,0.1,0.2,0.2,0.4,0.2h1.5c0.2,0,0.3-0.1,0.4-0.2C-498.3,617.3-498.2,617.2-498.2,617z"/>
<g>
	<path class="st1" d="M-459,615.7c-8,0-14.5-6.5-14.5-14.5c0-8,6.5-14.5,14.5-14.5s14.5,6.5,14.5,14.5
		C-444.5,609.1-451,615.7-459,615.7z M-459,587.6c-7.4,0-13.5,6.1-13.5,13.5s6.1,13.5,13.5,13.5c7.4,0,13.5-6.1,13.5-13.5
		S-451.6,587.6-459,587.6z"/>
</g>
<g>
	<g>
		<path class="st1" d="M-522,613.1c-8,0-14.5-6.5-14.5-14.5c0-8,6.5-14.5,14.5-14.5s14.5,6.5,14.5,14.5
			C-507.5,606.6-514,613.1-522,613.1z M-522,585.1c-7.4,0-13.5,6.1-13.5,13.5s6.1,13.5,13.5,13.5c7.4,0,13.5-6.1,13.5-13.5
			S-514.6,585.1-522,585.1z"/>
	</g>
	<path class="st1" d="M-514.6,593.8v9.1c0,0.4-0.1,0.7-0.4,0.9c-0.3,0.3-0.6,0.4-0.9,0.4h-12.3c-0.4,0-0.7-0.1-0.9-0.4
		c-0.3-0.3-0.4-0.6-0.4-0.9v-9.1c0-0.4,0.1-0.7,0.4-0.9c0.3-0.3,0.6-0.4,0.9-0.4h12.3c0.4,0,0.7,0.1,0.9,0.4
		S-514.6,593.5-514.6,593.8z M-515.7,594.1C-515.7,594.1-515.7,594.1-515.7,594.1c0-0.1,0-0.2,0-0.2c0,0,0-0.1,0-0.1
		c0,0,0-0.1,0-0.1c0,0,0,0,0-0.1s0,0-0.1-0.1c0,0-0.1,0-0.1,0h-12.3c-0.1,0-0.1,0-0.2,0.1c-0.1,0.1-0.1,0.1-0.1,0.2
		c0,0.9,0.4,1.7,1.2,2.4c1.1,0.8,2.2,1.7,3.4,2.7c0,0,0.1,0.1,0.3,0.2s0.3,0.2,0.4,0.3c0.1,0.1,0.2,0.2,0.4,0.3
		c0.2,0.1,0.3,0.2,0.4,0.2c0.1,0.1,0.2,0.1,0.4,0.1h0h0c0.1,0,0.2,0,0.4-0.1c0.1-0.1,0.3-0.1,0.4-0.2c0.2-0.1,0.3-0.2,0.4-0.3
		c0.1-0.1,0.2-0.2,0.4-0.3c0.2-0.1,0.3-0.2,0.3-0.2c1.2-0.9,2.3-1.8,3.4-2.7c0.3-0.2,0.6-0.6,0.8-1
		C-515.8,594.8-515.7,594.5-515.7,594.1z M-515.7,602.9v-6.4c-0.2,0.2-0.4,0.4-0.6,0.6c-1.5,1.1-2.7,2.1-3.6,2.8
		c-0.3,0.2-0.5,0.4-0.7,0.6c-0.2,0.1-0.4,0.3-0.7,0.4c-0.3,0.1-0.6,0.2-0.9,0.2h0h0c-0.3,0-0.6-0.1-0.9-0.2
		c-0.3-0.1-0.5-0.3-0.7-0.4s-0.4-0.3-0.7-0.6c-0.9-0.7-2.1-1.7-3.6-2.8c-0.2-0.2-0.4-0.4-0.6-0.6v6.4c0,0.1,0,0.1,0.1,0.2
		c0.1,0.1,0.1,0.1,0.2,0.1h12.3c0.1,0,0.1,0,0.2-0.1C-515.7,603.1-515.7,603-515.7,602.9z"/>
</g>
<g>
	<path class="st1" d="M-455.7,610.2h-6.9c-1.1,0-2-0.9-2-2v-15.1c0-1.1,0.9-2,2-2h6.9c1.1,0,2,0.9,2,2v15.1
		C-453.7,609.3-454.6,610.2-455.7,610.2z"/>
	<rect x="-463.1" y="593.4" class="st2" width="8" height="13.1"/>
	<circle class="st2" cx="-459.1" cy="608.8" r="0.6"/>
</g>
</svg>
