<?xml version="1.0" encoding="utf-8"?>
<!-- Generator: Adobe Illustrator 19.1.0, SVG Export Plug-In . SVG Version: 6.00 Build 0)  -->
<svg version="1.1" id="Layer_1" xmlns="http://www.w3.org/2000/svg" xmlns:xlink="http://www.w3.org/1999/xlink" x="0px" y="0px"
	 viewBox="-473.8 586.2 29.7 29.7" style="enable-background:new -473.8 586.2 29.7 29.7;" xml:space="preserve">
<style type="text/css">
	.st0{fill:none;stroke:#000000;stroke-miterlimit:10;}
	.st1{fill:#191919;}
</style>
<circle class="st0" cx="-459" cy="601.2" r="14"/>
<g>
	<path class="st1" d="M-482.5,596.5v9.1c0,0.4-0.2,0.8-0.5,1.1c-0.3,0.3-0.7,0.5-1.1,0.5h-9.1c-0.4,0-0.8-0.2-1.1-0.5
		c-0.3-0.3-0.5-0.7-0.5-1.1v-9.1c0-0.4,0.2-0.8,0.5-1.1c0.3-0.3,0.7-0.5,1.1-0.5h9.1c0.4,0,0.8,0.2,1.1,0.5
		C-482.7,595.7-482.5,596.1-482.5,596.5z M-483.9,605.3v-5.2h-1.1c0.1,0.3,0.2,0.7,0.2,1c0,0.7-0.2,1.3-0.5,1.8
		c-0.3,0.6-0.8,1-1.4,1.3s-1.2,0.5-1.9,0.5c-1,0-1.9-0.4-2.7-1.1c-0.7-0.7-1.1-1.6-1.1-2.6c0-0.4,0.1-0.7,0.2-1h-1.1v5.2
		c0,0.1,0,0.3,0.1,0.3c0.1,0.1,0.2,0.1,0.3,0.1h8.5C-484.3,605.6-483.9,605.4-483.9,605.3z M-486.9,602.7c0.5-0.5,0.7-1,0.7-1.7
		c0-0.7-0.2-1.2-0.7-1.7s-1.1-0.7-1.7-0.7c-0.7,0-1.2,0.2-1.7,0.7s-0.7,1-0.7,1.7c0,0.7,0.2,1.2,0.7,1.7s1.1,0.7,1.7,0.7
		C-487.9,603.4-487.3,603.2-486.9,602.7z M-483.9,598.2v-1.3c0-0.1-0.1-0.3-0.2-0.4c-0.1-0.1-0.2-0.2-0.4-0.2h-1.4
		c-0.2,0-0.3,0.1-0.4,0.2c-0.1,0.1-0.2,0.2-0.2,0.4v1.3c0,0.2,0.1,0.3,0.2,0.4c0.1,0.1,0.2,0.2,0.4,0.2h1.4c0.2,0,0.3-0.1,0.4-0.2
		C-483.9,598.5-483.9,598.4-483.9,598.2z"/>
</g>
<g>
	<path class="st1" d="M-486.1,583.3v7.4c0,0.3-0.1,0.6-0.3,0.8c-0.2,0.2-0.5,0.3-0.8,0.3h-10c-0.3,0-0.6-0.1-0.8-0.3
		c-0.2-0.2-0.3-0.5-0.3-0.8v-7.4c0-0.3,0.1-0.6,0.3-0.8c0.2-0.2,0.5-0.3,0.8-0.3h10c0.3,0,0.6,0.1,0.8,0.3
		C-486.2,582.7-486.1,583-486.1,583.3z M-487,583.5L-487,583.5c0-0.1,0-0.1,0-0.2v-0.1v-0.1c0,0,0,0,0-0.1c0,0,0,0-0.1-0.1h-0.1h-10
		c-0.1,0-0.1,0-0.2,0.1c0,0-0.1,0.1-0.1,0.2c0,0.8,0.3,1.4,1,1.9c0.9,0.7,1.8,1.4,2.7,2.2c0,0,0.1,0.1,0.2,0.2
		c0.1,0.1,0.2,0.2,0.3,0.3c0.1,0.1,0.2,0.1,0.3,0.2c0.1,0.1,0.2,0.1,0.3,0.2c0.1,0,0.2,0.1,0.3,0.1l0,0l0,0c0.1,0,0.2,0,0.3-0.1
		c0.1,0,0.2-0.1,0.3-0.2c0.1-0.1,0.2-0.2,0.3-0.2c0.1-0.1,0.2-0.1,0.3-0.3c0.1-0.1,0.2-0.2,0.2-0.2c0.9-0.7,1.9-1.5,2.7-2.2
		C-488.1,584.9-487,583.8-487,583.5z M-487,590.7v-5.2c-0.1,0.2-0.3,0.3-0.5,0.4c-1.2,0.9-2.2,1.7-2.9,2.3c-0.2,0.2-0.4,0.3-0.6,0.5
		c-0.1,0.1-0.3,0.2-0.6,0.3c-0.2,0.1-0.5,0.2-0.7,0.2l0,0l0,0c-0.2,0-0.4-0.1-0.7-0.2c-0.2-0.1-0.4-0.2-0.6-0.3
		c-0.1-0.1-0.3-0.3-0.6-0.5c-0.7-0.6-1.7-1.4-2.9-2.3c-0.2-0.1-0.3-0.3-0.5-0.4v5.2c0,0.1,0,0.1,0.1,0.2c0,0,0.1,0.1,0.2,0.1h10
		c0.1,0,0.1,0,0.2-0.1S-487,590.7-487,590.7z"/>
</g>
<path d="M-452.7,596.2v9.6c0,0.5-0.2,0.8-0.5,1.2c-0.3,0.3-0.7,0.5-1.2,0.5h-9.6c-0.5,0-0.8-0.2-1.2-0.5s-0.5-0.7-0.5-1.2v-9.6
	c0-0.5,0.2-0.8,0.5-1.2s0.7-0.5,1.2-0.5h9.6c0.5,0,0.8,0.2,1.2,0.5C-452.9,595.3-452.7,595.7-452.7,596.2z M-454.2,605.4V600h-1.1
	c0.1,0.4,0.2,0.7,0.2,1.1c0,0.7-0.2,1.4-0.5,1.9s-0.8,1.1-1.5,1.4c-0.6,0.3-1.3,0.5-2,0.5c-1.1,0-2-0.4-2.8-1.1
	c-0.8-0.8-1.2-1.7-1.2-2.7c0-0.4,0.1-0.7,0.2-1.1h-1.2v5.4c0,0.1,0,0.3,0.1,0.4s0.2,0.1,0.4,0.1h8.9c0.1,0,0.3,0,0.4-0.1
	S-454.2,605.5-454.2,605.4z M-457.3,602.7c0.5-0.5,0.8-1.1,0.8-1.8s-0.3-1.3-0.8-1.8c-0.5-0.5-1.1-0.7-1.8-0.7
	c-0.7,0-1.3,0.2-1.8,0.7c-0.5,0.5-0.8,1.1-0.8,1.8s0.3,1.3,0.8,1.8s1.1,0.7,1.8,0.7C-458.4,603.4-457.8,603.2-457.3,602.7z
	 M-454.2,597.9v-1.4c0-0.2-0.1-0.3-0.2-0.4c-0.1-0.1-0.2-0.2-0.4-0.2h-1.5c-0.2,0-0.3,0.1-0.4,0.2c-0.1,0.1-0.2,0.2-0.2,0.4v1.4
	c0,0.2,0.1,0.3,0.2,0.4c0.1,0.1,0.2,0.2,0.4,0.2h1.5c0.2,0,0.3-0.1,0.4-0.2C-454.2,598.2-454.2,598.1-454.2,597.9z"/>
<path d="M-407.2,575.7v9.1c0,0.4-0.1,0.7-0.4,0.9c-0.3,0.3-0.6,0.4-0.9,0.4h-12.3c-0.4,0-0.7-0.1-0.9-0.4c-0.3-0.3-0.4-0.6-0.4-0.9
	v-9.1c0-0.4,0.1-0.7,0.4-0.9c0.3-0.3,0.6-0.4,0.9-0.4h12.3c0.4,0,0.7,0.1,0.9,0.4S-407.2,575.4-407.2,575.7z M-408.3,576
	C-408.3,576-408.3,576-408.3,576c0-0.1,0-0.2,0-0.2c0,0,0-0.1,0-0.1c0,0,0-0.1,0-0.1c0,0,0,0,0-0.1s0,0-0.1-0.1c0,0-0.1,0-0.1,0
	h-12.3c-0.1,0-0.1,0-0.2,0.1c-0.1,0.1-0.1,0.1-0.1,0.2c0,0.9,0.4,1.7,1.2,2.4c1.1,0.8,2.2,1.7,3.4,2.7c0,0,0.1,0.1,0.3,0.2
	s0.3,0.2,0.4,0.3c0.1,0.1,0.2,0.2,0.4,0.3c0.2,0.1,0.3,0.2,0.4,0.2c0.1,0.1,0.2,0.1,0.4,0.1h0h0c0.1,0,0.2,0,0.4-0.1
	c0.1-0.1,0.3-0.1,0.4-0.2c0.2-0.1,0.3-0.2,0.4-0.3c0.1-0.1,0.2-0.2,0.4-0.3c0.2-0.1,0.3-0.2,0.3-0.2c1.2-0.9,2.3-1.8,3.4-2.7
	c0.3-0.2,0.6-0.6,0.8-1C-408.4,576.7-408.3,576.4-408.3,576z M-408.3,584.8v-6.4c-0.2,0.2-0.4,0.4-0.6,0.6c-1.5,1.1-2.7,2.1-3.6,2.8
	c-0.3,0.2-0.5,0.4-0.7,0.6c-0.2,0.1-0.4,0.3-0.7,0.4c-0.3,0.1-0.6,0.2-0.9,0.2h0h0c-0.3,0-0.6-0.1-0.9-0.2c-0.3-0.1-0.5-0.3-0.7-0.4
	s-0.4-0.3-0.7-0.6c-0.9-0.7-2.1-1.7-3.6-2.8c-0.2-0.2-0.4-0.4-0.6-0.6v6.4c0,0.1,0,0.1,0.1,0.2c0.1,0.1,0.1,0.1,0.2,0.1h12.3
	c0.1,0,0.1,0,0.2-0.1C-408.3,585-408.3,584.9-408.3,584.8z"/>
</svg>
